# xmcd
#
# Track frame offsets:
# 150
# 4750
# 32627
# 53490
# 75403
# 105981
# 130466
# 153880
# 173102
# 196735
# 218058
# 242305
#
# Disc length: 3587 seconds
#
#
# Revision: 0
# Processed by: cddbd v1.5.2PL0 Copyright (c) Steve Scherf et al.
# Submitted via: FreeRIP 2.951 
#
DISCID=810e010c
DTITLE=Patti Smith - Bells of Berlin
DYEAR=2002
DGENRE=Blues
TTITLE0=Intro
TTITLE1=Beneath the Southern Cross
TTITLE2=Grateful (dedicated to Jerry Garcia)
TTITLE3=Dead City
TTITLE4=25th Floor
TTITLE5=1959
TTITLE6=Redondo Beach
TTITLE7=One Voice
TTITLE8=Free Money
TTITLE9=One Voice
TTITLE10=When Doves cry
TTITLE11=Dancing Barefoot
EXTD=Berlin, Museumsinsel 9.8.2002\nCD1
EXTT0=
EXTT1=
EXTT2=
EXTT3=
EXTT4=
EXTT5=
EXTT6=
EXTT7=
EXTT8=
EXTT9=
EXTT10=
EXTT11=
PLAYORDER=
